# AST/ASF file generated using VICON BodyLanguage
# -----------------------------------------------
:version 1.10
:name VICON
:units
  mass 1.0
  length 0.45
  angle deg
:documentation
   .ast/.asf automatically generated from VICON data using
   VICON BodyBuilder and BodyLanguage model FoxedUp or BRILLIANT.MOD
:root
   order TX TY TZ RX RY RZ
   axis XYZ
   position 0 0 0  
   orientation 0 0 0 
:bonedata
  begin
     id 1 
     name lhipjoint
     direction 0.63403 -0.759788 0.143974 
     length 2.51904 
     axis 0 0 0  XYZ
  end
  begin
     id 2 
     name lfemur
     direction 0.34202 -0.939693 0  
     length 7.42313  
     axis 0 0 20  XYZ
    dof rx ry rz
    limits (-160.0 20.0)
           (-70.0 70.0)
           (-60.0 70.0)
  end
  begin
     id 3 
     name ltibia
     direction 0.34202 -0.939693 0   
     length 8.10141   
     axis 0 0 20   XYZ
    dof rx
    limits (-10.0 170.0)
  end
  begin
     id 4 
     name lfoot
     direction 0.0927455 -0.254816 0.962532   
     length 2.14078   
     axis -90 7.62852e-016 20   XYZ
    dof rx rz
    limits (-45.0 90.0)
           (-70.0 20.0)
  end
  begin
     id 5 
     name ltoes
     direction 1.53556e-011 -4.21949e-011 1   
     length 1.07182   
     axis -90 7.62852e-016 20   XYZ
    dof rx
    limits (-90.0 20.0)
  end
  begin
     id 6 
     name rhipjoint
     direction -0.659892 -0.738223 0.139888   
     length 2.59263  
     axis 0 0 0  XYZ 
  end
  begin
     id 7 
     name rfemur
     direction -0.34202 -0.939693 0   
     length 7.58575   
     axis 0 0 -20   XYZ
    dof rx ry rz
    limits (-160.0 20.0)
           (-70.0 70.0)
           (-70.0 60.0)
  end
  begin
     id 8 
     name rtibia
     direction -0.34202 -0.939693 0   
     length 8.19358   
     axis 0 0 -20   XYZ
    dof rx
    limits (-10.0 170.0)
 end
 begin
     id 9 
     name rfoot
     direction -0.0856543 -0.235333 0.968133   
     length 2.13415  
     axis -90 -7.62852e-016 -20   XYZ
    dof rx rz
    limits (-45.0 90.0)
           (-20.0 70.0)
  end
  begin
     id 10 
     name rtoes
     direction -1.53551e-011 -4.21811e-011 1   
     length 1.07055   
     axis -90 -7.62852e-016 -20   XYZ
    dof rx
    limits (-90.0 20.0)
  end
  begin
     id 11 
     name lowerback
     direction 0.025219 0.998394 -0.0507326   
     length 1.91844   
     axis 0 0 0   XYZ
    dof rx ry rz
    limits (-20.0 45.0)
           (-30.0 30.0)
           (-30.0 30.0)
  end
  begin
     id 12 
     name upperback
     direction 0.0213103 0.99967 -0.0143101   
     length 1.92246   
     axis 0 0 0   XYZ
    dof rx ry rz
    limits (-20.0 45.0)
           (-30.0 30.0)
           (-30.0 30.0)
  end
  begin
     id 13 
     name thorax
     direction 0.00920974 0.99991 0.00971518   
     length 1.92239   
     axis 0 0 0   XYZ
    dof rx ry rz
    limits (-20.0 45.0)
           (-30.0 30.0)
           (-30.0 30.0)
  end
  begin
     id 14 
     name lowerneck
     direction 0.0598257 0.997249 0.0437612   
     length 3.13679   
     axis 0 0 0   XYZ
    dof rx ry rz
    limits (-20.0 45.0)
           (-30.0 30.0)
           (-30.0 30.0)
  end
  begin
     id 15 
     name upperneck
     direction -0.035342 0.999338 0.00863891   
     length 3.16283   
     axis 0 0 0   XYZ
    dof rx ry rz
    limits (-20.0 45.0)
           (-30.0 30.0)
           (-30.0 30.0)
  end
  begin
     id 16
     name head
     direction 0.37144 0.811566 0.450991  
     length 1.2838  
     axis 0 0 0   XYZ
    dof rx ry rz
    limits (-20.0 45.0)
           (-30.0 30.0)
           (-30.0 30.0)
  end
  begin
     id 17 
     name lclavicle
     direction 0.961094 0.274654 -0.0293862  
     length 3.63466  
     axis 0 0 0   XYZ
    dof ry rz
    limits (-20.0 10.0)
           (0.0 20.0)
  end
  begin
     id 18 
     name lhumerus
     direction 1 -4.48963e-011 1.10303e-027   
     length 5.12842   
     axis 180 -30 -90   XYZ
    dof rx ry rz
    limits (-60.0 90.0)
           (-90.0 90.0)
           (-90.0 90.0)
  end
  begin
     id 19
     name lradius
     direction 1 -4.48968e-011 4.13199e-027   
     length 3.47396   
     axis 180 -30 -90   XYZ
    dof rx
    limits (-10.0 170.0)
  end
  begin
     id 20
     name lwrist
     direction 1 -4.48948e-011 9.12708e-027   
     length 1.73698   
     axis -6.84618e-015 90 90   XYZ
    dof ry
    limits (-180.0 0.0)
 end
  begin
     id 21 
     name lhand
     direction 1 -4.49057e-011 1.82749e-026   
     length 0.728607   
     axis -1.16502e-014 90 90   XYZ
    dof rx rz
    limits (-90.0 90.0)
           (-45.0 45.0)
  end
  begin
     id 22 
     name lfingers
     direction 1 -4.48912e-011 3.64949e-026   
     length 0.587422   
     axis -2.33008e-014 90 90   XYZ
    dof rx
    limits (0.0 90.0)
  end
  begin
     id 23
     name lthumb
     direction 0.707107 -6.34995e-011 0.707107   
     length 0.843424   
     axis -90 45 5.69224e-014   XYZ
    dof rx rz
    limits (-45.0 45.0)
           (-45.0 45.0)
  end
  begin
     id 24 
     name rclavicle
     direction -0.90514 0.421881 -0.0523369   
     length 3.57139  
     axis 0 0 0   XYZ 
    dof ry rz
    limits (-10.0 20.0)
           (-20.0 0.0)
  end
  begin
     id 25 
     name rhumerus
     direction -1 -4.48954e-011 -1.76662e-027  
     length 5.48477   
     axis 180 30 90   XYZ
    dof rx ry rz
    limits (-90.0 60.0)
           (-90.0 90.0)
           (-90.0 90.0)
  end
  begin
     id 26 
     name rradius
     direction -1 -4.48982e-011 1.26841e-027   
     length 3.47856   
     axis 180 30 90   XYZ
    dof rx
    limits (-10.0 170.0)
  end
  begin
     id 27 
     name rwrist
     direction -1 -4.49037e-011 9.13554e-027   
     length 1.73928   
     axis -6.84618e-015 -90 -90   XYZ
    dof ry
    limits (-180.0 0.0)
  end
  begin
     id 28
     name rhand
     direction -1 -4.48871e-011 1.82397e-026   
     length 0.709974   
     axis -1.16502e-014 -90 -90   XYZ
    dof rx rz
    limits (-90.0 90.0)
           (-45.0 45.0)
  end
  begin
     id 29
     name rfingers
     direction -1 -4.48994e-011 3.65258e-026   
     length 0.572399   
     axis -2.33008e-014 -90 -90   XYZ
    dof rx
    limits (0.0 90.0)
  end
  begin
     id 30
     name rthumb
     direction -0.707107 -6.34861e-011 0.707107   
     length 0.821855   
     axis -90 -45 -5.69224e-014   XYZ
    dof rx rz
    limits (-45.0 45.0)
           (-45.0 45.0)
  end
:hierarchy
  begin
    root lhipjoint rhipjoint lowerback
    lhipjoint lfemur
    lfemur ltibia
    ltibia lfoot
    lfoot ltoes
    rhipjoint rfemur
    rfemur rtibia
    rtibia rfoot
    rfoot rtoes
    lowerback upperback
    upperback thorax
    thorax lowerneck lclavicle rclavicle
    lowerneck upperneck
    upperneck head
    lclavicle lhumerus
    lhumerus lradius
    lradius lwrist
    lwrist lhand lthumb
    lhand lfingers
    rclavicle rhumerus
    rhumerus rradius
    rradius rwrist
    rwrist rhand rthumb
    rhand rfingers
  end

#!OML:ASF F:\VICON\USERDATA\INSTALL\Justin1\Justin1.ASF
:FULLY-SPECIFIED
:DEGREES
2955
root -0.0163732 18.2626 -4.07418 4.41735 3.46671 -4.60879
lowerback 2.72166 -0.0117565 2.48269
upperback -2.00569 0.206876 3.40404
thorax -3.59977 0.087454 2.10698
lowerneck -15.3561 -3.76734 -4.60587
upperneck 16.7855 -4.07262 0.021695
head 7.81566 -2.23218 0.30427
rclavicle -3.24267e-015 -5.36719e-014
rhumerus 18.8075 5.16788 -75.278
rradius 54.1199
rwrist 27.3822
rhand -46.7933 44.4869
rfingers 7.12502
rthumb -19.5086 15.4456
lclavicle -3.24267e-015 -5.36719e-014
lhumerus 20.9759 -8.58513 78.634
lradius 53.1485
lwrist -43.8119
lhand -36.0972 27.7327
lfingers 7.12502
lthumb -9.2036 57.5118
rfemur -16.4181 7.81178 29.0618
rtibia 31.6454
rfoot -16.2894 -13.2025
rtoes 29.3728
lfemur -16.0206 -10.2659 -16.564
ltibia 30.0331
lfoot -15.9736 9.3498
ltoes 1.93954
2956
root -0.0167269 18.2607 -4.06251 4.40477 3.48103 -4.5301
lowerback 2.73211 -0.0345474 2.33942
upperback -2.03299 0.172882 3.43337
thorax -3.63374 0.0744142 2.22003
lowerneck -15.3137 -3.8018 -4.6471
upperneck 16.7265 -4.12319 0.0753261
head 7.79193 -2.25325 0.324135
rclavicle 1.05977e-014 5.56597e-015
rhumerus 17.1396 5.78026 -75.2153
rradius 55.3487
rwrist 26.3742
rhand -46.2737 42.8477
rfingers 7.12502
rthumb -19.0089 13.7566
lclavicle 1.05977e-014 5.56597e-015
lhumerus 19.0097 -9.24171 78.7762
lradius 54.772
lwrist -42.632
lhand -34.694 26.5749
lfingers 7.12502
lthumb -7.84946 56.4092
rfemur -16.3364 7.86862 28.988
rtibia 31.5984
rfoot -16.3206 -13.2703
rtoes 29.4189
lfemur -15.9582 -10.2473 -16.659
ltibia 30.0362
lfoot -15.991 9.31284
ltoes 1.74192
2957
root -0.01981 18.2598 -4.05048 4.42376 3.506 -4.51195
lowerback 2.63349 -0.0675553 2.25477
upperback -2.02573 0.120631 3.44633
thorax -3.56938 0.0508628 2.28345
lowerneck -15.2671 -3.82208 -4.52234
upperneck 16.5836 -4.17591 0.037063
head 7.73358 -2.27307 0.287642
rclavicle 3.86388e-015 1.98785e-015
rhumerus 15.7639 6.18702 -75.2424
rradius 56.3386
rwrist 25.7032
rhand -45.3577 41.2616
rfingers 7.12502
rthumb -18.1279 12.0864
lclavicle 3.86388e-015 1.98785e-015
lhumerus 17.0696 -9.77919 79.0059
lradius 56.2477
lwrist -41.8085
lhand -33.2891 25.5194
lfingers 7.12502
lthumb -6.49327 55.3999
rfemur -16.318 7.94671 28.9836
rtibia 31.6124
rfoot -16.4054 -13.3384
rtoes 29.65
lfemur -15.9442 -10.2647 -16.6692
ltibia 30.0342
lfoot -16.0199 9.36128
ltoes 1.51152
2958
root -0.0203986 18.2591 -4.03628 4.43199 3.47867 -4.54187
lowerback 2.55361 -0.0932371 2.27063
upperback -2.00512 0.0820182 3.4365
thorax -3.50185 0.0312365 2.26589
lowerneck -15.2601 -3.85268 -4.33735
upperneck 16.4981 -4.24893 -0.0308862
head 7.69943 -2.30212 0.228179
rclavicle 1.10574e-015 -1.90833e-014
rhumerus 14.4582 6.49084 -75.3459
rradius 57.2019
rwrist 25.027
rhand -44.4083 40.166
rfingers 7.12502
rthumb -17.2142 10.9085
lclavicle 1.10574e-015 -1.90833e-014
lhumerus 15.0979 -10.2383 79.2981
lradius 57.5774
lwrist -41.1749
lhand -31.8444 24.6117
lfingers 7.12502
lthumb -5.09848 54.5303
rfemur -16.2957 7.96836 29.0278
rtibia 31.6447
rfoot -16.4197 -13.4072
rtoes 29.2401
lfemur -15.8982 -10.2597 -16.6416
ltibia 30.0294
lfoot -16.0871 9.39344
ltoes 1.58051
2959
root -0.0192405 18.2574 -4.02281 4.45639 3.48734 -4.49746
lowerback 2.55558 -0.128878 2.22054
upperback -2.03594 0.033216 3.42194
thorax -3.53369 0.00785873 2.28195
lowerneck -15.2563 -3.87831 -4.26127
upperneck 16.4904 -4.3076 -0.00424159
head 7.69604 -2.32269 0.218187
rclavicle 5.09386e-016 -6.75868e-015
rhumerus 12.9452 6.86568 -75.4555
rradius 57.9744
rwrist 24.6514
rhand -43.7732 39.2312
rfingers 7.12502
rthumb -16.6028 9.92135
lclavicle 5.09386e-016 -6.75868e-015
lhumerus 12.9916 -10.7851 79.5899
lradius 58.8708
lwrist -40.4291
lhand -30.5174 24.2417
lfingers 7.12502
lthumb -3.81713 54.1873
rfemur -16.2883 7.95181 28.9854
rtibia 31.6661
rfoot -16.4554 -13.3996
rtoes 29.3151
lfemur -15.8751 -10.3088 -16.6914
ltibia 30.0262
lfoot -16.1459 9.40009
ltoes 2.03224
2960
root -0.0170448 18.256 -4.01127 4.49605 3.54305 -4.5056
lowerback 2.59533 -0.197371 2.23599
upperback -2.09115 -0.0531492 3.43239
thorax -3.61145 -0.0356116 2.28987
lowerneck -15.3531 -3.84388 -4.20901
upperneck 16.471 -4.28355 0.0759397
head 7.70631 -2.29976 0.237215
rclavicle -1.31943e-014 -4.25399e-014
rhumerus 11.3899 7.33853 -75.5806
rradius 58.5577
rwrist 24.5249
rhand -43.2142 38.3117
rfingers 7.12502
rthumb -16.0647 8.95761
lclavicle -1.31943e-014 -4.25399e-014
lhumerus 10.8124 -11.2319 79.9369
lradius 60.0275
lwrist -39.7651
lhand -29.3899 24.0411
lfingers 7.12502
lthumb -2.72824 54.0034
rfemur -16.2974 7.89222 28.999
rtibia 31.6783
rfoot -16.4326 -13.4453
rtoes 28.9686
lfemur -15.8814 -10.362 -16.6763
ltibia 30.022
lfoot -16.1731 9.41774
ltoes 2.1173
2961
root -0.0141803 18.2562 -3.99618 4.53581 3.58605 -4.53089
lowerback 2.53529 -0.267465 2.28123
upperback -2.0873 -0.147449 3.44534
thorax -3.57143 -0.0835047 2.28269
lowerneck -15.5463 -3.82336 -4.16058
upperneck 16.4243 -4.2726 0.155053
head 7.72475 -2.28282 0.253508
rclavicle 1.02126e-014 -4.09496e-014
rhumerus 9.90198 7.77729 -75.7558
rradius 59.0966
rwrist 24.2711
rhand -42.1839 37.1455
rfingers 7.12502
rthumb -15.0723 7.71417
lclavicle 1.02126e-014 -4.09496e-014
lhumerus 8.74282 -11.5545 80.3697
lradius 60.8682
lwrist -39.2292
lhand -28.6345 23.5002
lfingers 7.12502
lthumb -1.99871 53.4706
rfemur -16.2803 7.83569 29.0246
rtibia 31.6785
rfoot -16.4516 -13.4439
rtoes 28.8191
lfemur -15.8632 -10.3656 -16.6554
ltibia 30.0169
lfoot -16.2425 9.40877
ltoes 2.03537
2962
root -0.014539 18.2556 -3.97698 4.56835 3.55926 -4.53552
lowerback 2.43707 -0.309734 2.21949
upperback -2.08874 -0.209262 3.49838
thorax -3.51558 -0.111945 2.37483
lowerneck -15.602 -3.85177 -4.26045
upperneck 16.3657 -4.31172 0.293799
head 7.7215 -2.29359 0.310296
rclavicle -1.41386e-014 4.92986e-014
rhumerus 8.31464 8.18163 -75.9708
rradius 59.6769
rwrist 23.5221
rhand -40.3981 35.8145
rfingers 7.12502
rthumb -13.3516 6.26232
lclavicle -1.41386e-014 4.92986e-014
lhumerus 6.58843 -11.7415 80.9846
lradius 61.473
lwrist -38.9012
lhand -28.1696 22.909
lfingers 7.12502
lthumb -1.54971 52.8832
rfemur -16.2314 7.8751 29.0364
rtibia 31.6602
rfoot -16.4941 -13.4722
rtoes 28.7087
lfemur -15.8212 -10.3415 -16.6558
ltibia 30.0118
lfoot -16.3694 9.3918
ltoes 2.43446
2963
root -0.0171868 18.2543 -3.95541 4.54538 3.44127 -4.5325
lowerback 2.41383 -0.302644 2.11654
upperback -2.09283 -0.203471 3.54267
thorax -3.50628 -0.105894 2.47809
lowerneck -15.6686 -3.87877 -4.34378
upperneck 16.3757 -4.34488 0.393737
head 7.74151 -2.30465 0.351456
rclavicle -6.88292e-015 -2.3059e-014
rhumerus 6.57629 8.52355 -76.2164
rradius 60.137
rwrist 22.7188
rhand -39.1655 34.9852
rfingers 7.12502
rthumb -12.1632 5.35879
lclavicle -6.88292e-015 -2.3059e-014
lhumerus 4.35226 -11.8272 81.7106
lradius 62.0311
lwrist -38.8881
lhand -27.6807 22.4164
lfingers 7.12502
lthumb -1.07752 52.3934
rfemur -16.1202 7.96143 29.0525
rtibia 31.6455
rfoot -16.5294 -13.4914
rtoes 28.5057
lfemur -15.6853 -10.2143 -16.6849
ltibia 29.9994
lfoot -16.4932 9.40172
ltoes 2.46957
2964
root -0.016021 18.252 -3.93656 4.48785 3.2476 -4.52095
lowerback 2.43288 -0.255658 2.05088
upperback -2.07571 -0.142674 3.5618
thorax -3.50078 -0.0737221 2.53149
lowerneck -15.6289 -3.93135 -4.34949
upperneck 16.2407 -4.42248 0.421499
head 7.69248 -2.33855 0.354622
rclavicle 5.25537e-015 2.38542e-014
rhumerus 4.83005 8.76827 -76.46
rradius 60.4677
rwrist 22.1626
rhand -38.282 34.6415
rfingers 7.12502
rthumb -11.3112 4.96646
lclavicle 5.25537e-015 2.38542e-014
lhumerus 2.15061 -11.8786 82.4663
lradius 62.4473
lwrist -38.8107
lhand -26.8614 21.7114
lfingers 7.12502
lthumb -0.286233 51.691
rfemur -15.9679 8.01667 29.0345
rtibia 31.6446
rfoot -16.6547 -13.3223
rtoes 28.859
lfemur -15.4913 -10.1532 -16.7526
ltibia 29.9931
lfoot -16.5927 9.5493
ltoes 2.64126
2965
root -0.0162202 18.2492 -3.92474 4.44911 2.73861 -4.49196
lowerback 2.51355 -0.123722 1.90279
upperback -2.08037 0.0317296 3.58054
thorax -3.55632 0.0171044 2.62529
lowerneck -15.442 -3.95627 -4.31506
upperneck 16.028 -4.47813 0.444989
head 7.5905 -2.3602 0.356083
rclavicle 1.72694e-015 -7.15625e-015
rhumerus 3.09362 8.88003 -76.8205
rradius 60.6771
rwrist 21.8175
rhand -37.0006 34.4774
rfingers 7.12502
rthumb -10.0752 4.7386
lclavicle 1.72694e-015 -7.15625e-015
lhumerus -0.0688514 -11.7822 83.2735
lradius 62.6088
lwrist -38.5258
lhand -25.7552 20.8684
lfingers 7.12502
lthumb 0.782173 50.8467
rfemur -15.8757 8.16473 28.9647
rtibia 31.6669
rfoot -16.6409 -13.002
rtoes 28.8571
lfemur -15.2843 -9.96813 -16.8682
ltibia 29.9836
lfoot -16.6747 9.83877
ltoes 2.86506
2966
root -0.0178908 18.2474 -3.91854 4.48514 2.48713 -4.56704
lowerback 2.58645 -0.117481 1.86065
upperback -2.12981 0.0452566 3.63686
thorax -3.64953 0.0257406 2.70779
lowerneck -15.2004 -3.91169 -4.16442
upperneck 15.7851 -4.45538 0.400858
head 7.46295 -2.34408 0.326985
rclavicle -8.07563e-016 6.67916e-014
rhumerus 1.29034 8.95618 -77.3781
rradius 60.8612
rwrist 21.5882
rhand -35.7586 34.3219
rfingers 7.12502
rthumb -8.87687 4.52862
lclavicle -8.07563e-016 6.67916e-014
lhumerus -2.3291 -11.5059 84.0235
lradius 62.5838
lwrist -38.1307
lhand -25.0156 20.0738
lfingers 7.12502
lthumb 1.49655 50.0483
rfemur -15.9034 8.29037 29.0214
rtibia 31.6822
rfoot -16.6384 -12.854
rtoes 28.8898
lfemur -15.2568 -9.92309 -16.8081
ltibia 29.9793
lfoot -16.6731 10.0786
ltoes 2.64719
